<?xml version="1.0" encoding="UTF-8" standalone="no"?>
<!-- Created with Inkscape (http://www.inkscape.org/) -->

<svg
   xmlns:dc="http://purl.org/dc/elements/1.1/"
   xmlns:cc="http://creativecommons.org/ns#"
   xmlns:rdf="http://www.w3.org/1999/02/22-rdf-syntax-ns#"
   xmlns:svg="http://www.w3.org/2000/svg"
   xmlns="http://www.w3.org/2000/svg"
   xmlns:sodipodi="http://sodipodi.sourceforge.net/DTD/sodipodi-0.dtd"
   xmlns:inkscape="http://www.inkscape.org/namespaces/inkscape"
   width="950px"
   height="50px"
   viewBox="0 0 50 950"
   version="1.1"
   id="svg8"
   preserveAspectRatio=" slice"
   inkscape:version="0.92.4 (5da689c313, 2019-01-14)"
   sodipodi:docname="cross.svg">
  <defs
     id="defs2" />
  <sodipodi:namedview
     id="base"
     pagecolor="#ffffff"
     bordercolor="#666666"
     borderopacity="1.0"
     inkscape:pageopacity="0.0"
     inkscape:pageshadow="2"
     inkscape:zoom="1.979899"
     inkscape:cx="331.41536"
     inkscape:cy="-105.4355"
     inkscape:document-units="mm"
     inkscape:current-layer="main"
     showgrid="false"
     inkscape:window-width="1920"
     inkscape:window-height="1001"
     inkscape:window-x="2391"
     inkscape:window-y="-9"
     inkscape:window-maximized="1" />
  <metadata
     id="metadata5">
    <rdf:RDF>
      <cc:Work
         rdf:about="">
        <dc:format>image/svg+xml</dc:format>
        <dc:type
           rdf:resource="http://purl.org/dc/dcmitype/StillImage" />
        <dc:title />
      </cc:Work>
    </rdf:RDF>
  </metadata>
  <g
     id="main">
    <path
       style="fill:none;stroke:#ffffff;stroke-width:18.51268005px;stroke-linecap:butt;stroke-linejoin:miter;stroke-opacity:0.5"
       d="m 19.82045,918.25953 c -25.8247457,-5.77588 -43.1411,-25.51063 -46.63884,-53.12211 -1.05827,-8.23639 -0.175,-17.87888 2.45,-26.11352 l 1.63537,-5.09337 -1.49539,-0.525 c -10.269863,-2.1 -15.276578,-4.48087 -22.203105,-9.15685 -22.449877,-15.67039 -31.555584,-45.81849 -22.057877,-73.03715 5.659495,-16.19884 19.249157,-30.43375 33.946119,-35.54772 l 3.63477,-1.42712 V 572.83493 431.42883 h -32.516784 -32.512837 l -0.525,1.65285 c -1.12,4.7138 -6.788246,15.05613 -11.061286,20.38489 -15.53036,19.38427 -40.36464,26.10442 -62.79484,16.99956 -18.47127,-7.51001 -31.31188,-24.53418 -35.6764,-47.33052 l -0.385,-1.77526 -3.75987,1.49561 c -14.79845,5.32665 -29.51986,4.46333 -43.78762,-3.2165 -11.88865,-6.27241 -22.35238,-18.36405 -27.33065,-31.57789 -6.66684,-17.69675 -4.66576,-39.54461 5.09632,-55.66048 9.68703,-15.98537 25.21064,-25.9879 43.03707,-27.7248 7.39021,-0.8492 18.95375,1.44294 26.06097,4.63224 0.85126,0.58595 1.24815,-0.58602 1.95917,-4.31724 3.71385,-19.39153 17.87664,-36.72507 35.72138,-43.71145 22.55313,-8.82647 47.87477,-1.53206 62.88673,18.55955 3.72661,4.90096 8.355366,13.79009 9.839776,18.78954 l 0.81414,2.6775 h 32.395087 32.394284 v -18.52556 -18.52851 l -4.1598,-1.68976 c -20.653372,-8.3256 -35.032369,-29.54078 -36.336976,-53.60157 -1.41751,-25.88253 12.394412,-49.54201 34.738371,-59.57369 2.869995,-1.47948 6.988655,-2.58646 9.127998,-3.08 2.12501,-0.58589 4.27711,-1.04065 4.70848,-1.18052 0.58665,-0.525 0.525,-1.74237 -0.86583,-5.64785 -9.511253,-30.15545 5.78199,-64.69772 33.5308599,-75.737389 6.6998801,-2.548019 12.5711301,-3.874566 20.0213591,-3.886108 32.45723,-0.35 58.054029,28.882715 56.364369,63.660727 -0.464089,6.51417 -2.125349,15.51914 -4.165859,20.56424 -0.525,1.1375 0.175,1.49561 2.8245,1.74233 1.810359,0.46386 5.676999,1.62751 8.555789,2.60044 21.357882,8.85224 35.188992,29.38032 36.342202,53.92618 0.81324,17.44114 -4.59728,32.85933 -15.87075,45.243 -5.83708,6.40694 -11.85798,10.80644 -19.318232,14.10518 l -5.34979,2.24001 v 18.47493 18.47154 h 32.315562 32.31455 l 2.17967,-5.76409 c 12.44733,-32.73374 48.03173,-47.43986 77.12999,-31.87624 15.50834,8.29602 28.10763,25.88419 30.41187,42.45675 0.4109,1.74229 0.58585,3.4545 0.72575,3.4545 0.175,0 1.8025,-0.805 3.75124,-1.6275 5.823,-2.345 15.4033,-4.05514 22.1968,-3.4825 20.79545,1.68 38.36194,14.14437 47.21524,33.5695 4.08434,9.00112 5.23336,13.94173 5.64808,24.7676 0.464,7.64887 0.175,10.26425 -1.1375,16.12639 -5.53088,25.81376 -25.27798,44.08914 -50.80599,47.02741 -5.38475,0.7175 -15.95937,-0.93557 -21.80687,-2.76502 l -4.62076,-1.68 -1.4525,6.35726 c -4.03725,17.77506 -15.51855,33.08151 -30.7628,40.97576 -28.75306,14.89596 -63.22753,0.86675 -76.11979,-31.24747 l -2.25017,-5.57203 -32.46807,-0.525 -32.470042,-0.46391 v 141.72391 141.71147 l 3.88584,1.6275 c 4.35228,1.68 11.820332,6.349 16.539842,10.52626 7.40776,6.54148 15.19382,19.88993 17.97069,30.80526 1.75749,6.82178 1.7675,23.79823 7.6e-4,30.53223 -1.7772,6.93 -6.71666,17.51786 -10.60531,22.68731 -8.23161,10.94857 -21.808112,19.84731 -33.023941,21.66906 -2.5445,0.58574 -3.087,0.875 -2.744,1.67213 3.4825,9.75101 4.795809,18.16756 4.25331,27.27848 -1.35706,21.94236 -13.142829,41.11011 -31.173829,50.67144 -8.952662,4.79608 -15.340161,6.3282 -25.138921,6.20833 -4.393258,-0.525 -8.623469,-0.525 -9.382969,-0.58582 z m 24.164868,-11.00662 c 12.048642,-4.52114 22.549191,-14.09713 27.877512,-25.83352 3.926529,-8.62837 4.988369,-13.62024 4.988369,-23.36948 0,-9.429 -1.05921,-14.53986 -4.655869,-22.60039 -2.68801,-6.00773 -2.71251,-8.64499 -7.9e-4,-9.73609 0.83084,-0.525 4.049349,-1.1279 7.133759,-1.61 21.511121,-2.8875 38.157181,-20.99084 41.034181,-44.34763 2.03027,-16.4006 -2.6425,-30.84159 -13.84625,-43.0045 -5.01796,-5.37336 -6.938562,-6.944 -12.452982,-9.7987 -3.59975,-1.75781 -7.53536,-3.74582 -8.769109,-3.97904 -4.691,-1.18211 -4.32878,11.4629 -4.32878,-150.43788 0,-131.60869 0.175,-146.91157 1.09303,-148.39388 l 1.085,-1.67035 h 38.171501 c 43.72247,0 39.20959,-0.93674 41.76899,7.82167 3.62864,12.24555 13.25863,23.94614 24.51838,29.75431 8.12961,4.32903 12.19837,5.07594 21.46402,5.05844 6.69598,-0.41091 8.37172,-0.525 14.15462,-2.28469 13.08821,-4.80725 23.75883,-15.05875 29.06225,-27.9886 2.0825,-4.98228 4.06655,-14.29663 4.06655,-18.75391 0,-2.8455 0.4639,-4.50975 1.39044,-5.40837 1.86281,-1.84713 2.758,-1.79287 8.53013,1.2775 7.62687,4.06698 13.11662,4.9823 22.88338,4.73198 6.56553,-0.525 9.33275,-0.86693 13.33235,-2.13527 14.50487,-5.47809 25.55024,-17.59162 30.23283,-32.99512 1.79463,-5.95993 2.0125,-7.52762 1.96,-16.27794 -0.0829,-8.41924 -0.46402,-10.46675 -1.89,-15.73656 -3.79296,-12.42479 -13.56643,-24.52829 -24.24496,-30.05973 -7.66273,-4.08395 -12.71444,-5.14575 -21.15469,-5.14575 -8.38567,0 -14.24937,1.52249 -21.00866,4.87756 -2.67051,1.55746 -5.37313,2.43246 -6.0415,2.43246 -2.42246,0 -3.73367,-2.42263 -4.19475,-8.04193 -1.785,-20.74241 -14.817,-37.84067 -33.93725,-44.54276 -7.52702,-2.51294 -19.59896,-2.66698 -26.92665,-0.525 -15.41806,5.14047 -27.51699,17.84036 -32.4727,33.88086 -1.02435,3.29 -2.135,6.38311 -2.5375,6.89061 -0.58593,0.86578 -9.14505,1.05828 -38.71378,1.05828 -34.397142,0 -38.127251,-0.525 -39.270001,-1.42706 -1.15501,-1.3475 -1.25067,-2.80708 -1.25067,-25.54797 0,-18.3144 0.35,-24.619 0.84839,-25.51919 0.58581,-0.77822 3.367,-1.88231 6.386389,-3.1325 15.425672,-5.43154 27.202932,-18.86906 31.787882,-36.12407 1.70715,-6.38971 1.72465,-19.27842 7.6e-4,-26.00407 -5.32087,-21.28576 -21.553872,-35.99456 -42.448881,-38.48168 -4.399489,-0.62168 -6.976359,-1.89966 -6.976359,-4.45771 0,-0.67332 1.1121,-3.68716 2.42507,-6.66217 3.518369,-8.24808 4.708369,-13.88316 4.708369,-22.48127 0,-9.02812 -1.2775,-14.87053 -5.169069,-23.461302 -2.30256,-4.99386 -4.043371,-7.60355 -8.799551,-12.737808 -4.93588,-5.257075 -7.050759,-6.993808 -12.49588,-9.878718 -14.21295,-7.537077 -28.370459,-7.538418 -42.7528291,0 -11.3846156,5.960832 -20.0424119,16.800636 -24.3127499,30.441938 -1.44288,4.6849 -1.63537,6.5577 -1.58288,16.01353 7.6e-4,10.21263 0.25334,11.12389 2.17,16.91271 1.16322,3.42662 2.649498,6.86997 3.237498,7.79631 1.4525,2.08995 1.39211,4.84277 -0.28,6.45044 -0.88422,1.0944 -2.761498,1.65299 -6.385748,1.68 -6.89324,0.7525 -12.435153,2.10745 -18.234108,5.26278 -11.838417,6.24879 -21.818999,19.7218 -24.962029,33.70842 -1.76006,7.74458 -1.56581,19.37618 0.525,26.24882 5.197862,18.26338 16.914112,30.89379 33.471377,36.08671 2.22986,0.83059 4.13036,1.68963 4.55615,2.51652 0.58599,1.0325 0.7175,10.47198 0.7175,25.42766 0,21.2931 -0.175,24.16076 -1.1375,25.37266 -1.09423,1.47 -3.1955,1.53216 -39.267397,1.53216 -30.843727,0 -38.269433,-0.525 -38.884983,-1.12 -0.525,-0.63 -1.435,-3.3425 -2.21254,-6.1425 -4.80233,-16.97757 -18.45193,-30.93216 -34.2627,-35.05402 -7.2848,-1.8025 -18.01978,-1.70524 -24.35477,0.586 -14.35611,4.83676 -24.20901,13.75166 -30.44913,27.64098 -2.5344,5.62457 -3.36476,8.84996 -4.34309,16.74838 -0.74273,5.99637 -1.01716,6.79964 -2.63852,7.78484 -1.69227,1.18053 -2.16652,1.05 -7.22622,-1.67997 -7.76866,-3.99067 -12.90317,-5.02923 -21.51495,-5.00035 -20.99647,0.46415 -38.40026,13.62286 -45.4431,35.42787 -1.71592,5.25697 -1.92298,6.97985 -1.93173,15.63384 -0.0172,11.11929 0.87675,15.24938 5.23221,24.30379 4.67223,9.71349 13.71786,18.95525 22.77365,23.2585 12.5335,5.957 29.34136,5.46112 41.50254,-1.303 4.41483,-2.2825 6.88981,-2.30738 8.00409,-0.525 0.35,0.84 0.81242,4.01363 1.05,7.099 1.27224,17.01426 11.16676,33.06701 25.28401,41.03738 7.61816,4.45738 13.81451,5.95363 22.11166,5.91588 8.98364,-0.525 15.03385,-1.68963 22.13187,-5.4902 11.69564,-6.55942 20.82889,-18.34217 24.18189,-31.20446 1.6997,-6.4821 -1.8878,-5.95985 40.903183,-5.95985 34.375244,0 38.102747,0.525 39.245527,1.42712 1.1996,1.37462 1.25071,6.77326 1.25071,148.42627 0,116.61457 -0.28,147.4418 -0.84,148.39806 -0.58597,0.77817 -2.42496,1.63527 -4.32895,2.15997 -10.200748,3.227 -16.414115,7.34056 -23.381425,15.45738 -8.248082,9.61234 -12.463832,21.36487 -12.404352,34.57488 7.7e-4,12.35663 3.3075,22.75867 10.012652,32.16967 7.98787,11.19695 23.452612,19.58647 36.099325,19.58647 3.423,0 5.898908,1.7325 5.898908,4.60309 0,0.95316 -1.05923,3.83334 -2.35516,6.52254 -3.506468,7.59558 -4.813318,15.09142 -4.370088,25.08712 0.63846,14.05483 4.591518,23.57801 13.9580043,33.74553 4.69119003,4.98237 6.753233,6.69726 12.1444456,9.50788 8.6551701,4.66188 13.5888001,5.61886 23.0707991,5.25136 5.94125,-0.525 8.79758,-0.81319 13.118369,-2.12761 z M 17.40411,721.35919 V 667.8871 l -3.98526,-2.4325 c -2.17,-1.58427 -9.7968627,-6.16577 -16.9158557,-10.58102 l -12.9452643,-8.0259 v -12.99197 -12.99237 l 2.23,1.6275 c 1.724638,1.3045 28.33073,17.64388 31.06948,19.29408 0.46381,0.525 0.5858,-58.86155 0.5858,-131.17554 V 379.10639 h -58.693288 -58.682826 v -12.65993 -12.6585 H -41.250278 17.43561 V 326.97185 300.16311 H 0.51520433 -16.40031 V 287.13077 274.1026 H 0.51520433 17.43036 v -35.37941 -35.36751 h 11.737569 11.736939 v 35.36751 35.37941 h 16.915481 16.91552 v 13.02817 13.03406 H 57.823299 40.908368 v 26.80877 26.81029 h 58.68487 58.686782 v 12.65691 12.66297 H 99.584138 40.896428 l 0.28,138.92785 0.28,138.92548 16.572171,10.24571 16.569041,10.25239 0.279999,12.88 c 0.28,11.82038 0.175,12.83926 -0.971689,12.3996 -0.63834,-0.525 -8.116511,-4.81948 -16.616261,-10.14038 -8.49975,-5.25086 -15.595971,-9.65958 -15.769311,-9.65958 -0.28,0 -0.46392,20.69596 -0.46392,45.98606 l -2.3e-4,45.98301 -11.737899,0.525 -11.736599,0.525 z M -142.34811,400.30872 c -14.59981,-1.68001 -25.24331,-15.66182 -25.26914,-33.41821 -7.7e-4,-14.47423 6.79746,-26.70319 18.27571,-32.78444 4.676,-2.35498 5.07762,-2.4325 12.77325,-2.40748 7.16277,0.46405 8.35626,0.52501 12.03341,1.86288 4.5251,2.1175 6.034,1.925 7.19075,-0.735 0.55149,-1.16429 1.20878,-1.72288 1.77498,-1.72288 0.78662,0 1.0945,1.72288 1.42712,8.00048 0.35857,4.58624 0.58607,9.41338 0.7525,11.14189 0.5775,4.99434 -0.81332,4.60324 -3.58098,-1.70506 -4.38461,-9.71512 -11.44762,-14.46005 -20.06547,-13.50215 -8.21714,1.02419 -14.14438,6.04931 -17.5324,15.19496 -1.435,3.94975 -1.58636,5.50199 -1.60824,15.84974 -7.7e-4,10.92996 0.105,11.76294 1.79287,15.72669 2.45,5.6417 6.09134,9.80265 10.44097,11.91314 2.93825,1.56538 4.7915,1.68756 9.83325,1.68756 5.40528,7.8e-4 6.66926,-0.525 9.73828,-1.82756 2.0226,-1.35569 5.17525,-4.14838 7.3785,-6.69144 2.77236,-3.47901 4.0556,-4.63838 4.62435,-3.99088 0.56916,0.70911 -7.7e-4,1.8378 -2.23784,5.12869 -6.66001,9.74757 -15.15764,13.46717 -27.69113,12.10038 z m 386.93058,0.35 c -8.10075,-1.61977 -14.36345,-5.83469 -18.98431,-13.29839 -5.117,-8.27689 -6.83118,-17.83164 -4.93589,-27.55471 2.345,-11.92885 8.25824,-20.40979 17.63476,-25.24198 5.01809,-2.47512 5.50809,-2.5795 12.81089,-2.5795 6.76723,0.0925 8.06311,0.525 11.88948,1.8725 2.37244,1.32181 4.63836,1.88036 5.02894,1.88036 0.525,0 1.4,-1.4002 2.17756,-2.5517 0.95332,-1.72266 1.68992,-2.28473 2.12495,-1.81016 0.60355,0.77 1.76,13.18717 1.8375,20.45631 8.3e-4,3.95006 -1.16303,3.2445 -2.807,-1.5575 -1.99501,-5.58949 -5.40851,-10.11411 -9.62426,-12.60961 -3.297,-1.81214 -4.40475,-2.05751 -9.26569,-2.0475 -6.38312,0.28 -10.30443,1.68991 -14.09012,5.607 -8.94777,9.55973 -10.24889,33.98795 -2.44217,46.11104 4.73729,7.39577 15.16073,10.67151 24.53413,7.7184 3.09402,-1.11208 4.63799,-1.95013 8.84886,-6.75065 3.3215,-3.75177 5.33842,-5.25697 5.7698,-4.83697 0.8667,1.08501 -2.47755,6.25101 -6.55464,10.29002 -3.72836,3.81586 -8.22236,5.95177 -13.89279,6.94486 -4.75519,0.93579 -4.87769,0.93579 -10.07036,-0.525 z m -440.3896,-1.39052 c -5.23512,-0.525 -5.54402,-1.75 -0.49,-2.33505 2.11049,-0.525 3.65445,-1.05 4.25995,-1.72475 0.76256,-1.33808 0.94716,-6.7085 0.94716,-28.72741 0,-31.12665 0.15772,-30.32254 -5.52913,-31.15465 -1.64278,-0.525 -3.1185,-0.98929 -3.27553,-1.53204 -0.21,-0.86672 2.72603,-1.05937 13.23438,-1.05937 11.55832,0 13.52094,0.525 13.52094,1.3125 0,0.945 -0.76081,1.30437 -2.6364,1.30437 -3.71786,0 -5.04962,1.53204 -5.61794,5.61829 -0.4375,2.80001 -0.49,41.67132 -0.15771,50.95159 0.15771,3.20252 2.27067,5.1404 5.60921,5.1404 1.855,0 2.75688,0.525 2.75688,1.14682 0,0.8925 -1.70163,1.33 -6.32023,1.6625 -6.19645,0.58646 -7.51137,0.58646 -16.33788,-0.525 z m 351.12396,0 c -5.01725,-0.525 -6.90595,-1.4 -4.1305,-1.925 2.975,-1.11042 6.96287,-3.27956 9.1018,-5.13413 1.785,-1.645 11.9521,-14.91075 18.84309,-24.63475 1.015,-1.5575 -14.96284,-26.1125 -18.90784,-29.25124 -1.12791,-1.02328 -3.54725,-1.8375 -5.4373,-2.35465 -1.8725,-0.595 -3.4125,-1.4525 -3.4125,-1.74235 0,-0.8575 3.29,-1.09305 14.49878,-1.09305 11.48224,0 14.49961,0.525 14.49961,1.12 0,0.63842 -1.3125,1.44291 -2.94,1.65256 -4.67374,1.30449 -4.37584,2.758 2.2575,13.71736 4.69663,7.65436 5.75842,8.9885 6.50741,8.127 2.135,-2.35478 11.66947,-16.08511 12.31522,-17.60164 1.015,-2.23022 -1.04081,-4.76698 -4.08975,-4.76698 -1.58289,0 -2.32008,-0.525 -2.32008,-1.30449 0,-1.085 1.75001,-1.3125 11.44895,-1.3125 8.34925,0 11.37762,0.525 11.18337,0.98924 -0.25333,0.595 -1.49712,1.47949 -3.0625,1.68986 -5.05269,1.67014 -7.08837,3.97911 -21.5409,23.98224 l -2.23768,3.0695 8.43371,13.55921 c 9.29118,14.94502 13.01693,19.6604 16.13675,20.4059 3.29,0.93579 3.78655,1.1821 3.78655,1.6625 0,1.3125 -6.58568,1.65287 -17.26112,1.4525 -7.64663,-0.525 -10.01131,-0.65659 -10.01131,-1.47961 0,-0.63835 0.91917,-1.2775 2.08993,-1.40961 2.71251,-0.525 3.78658,-1.56712 3.78658,-3.728 0,-1.89 -12.26575,-22.77668 -13.15696,-22.18636 -1.44292,1.0943 -15.15019,20.7536 -15.13969,21.84511 8.4e-4,1.86507 1.11077,3.17814 3.458,3.83297 1.24252,0.525 2.41503,1.02329 2.52003,1.4875 0.58607,1.67214 -2.55503,1.75787 -17.23715,1.39212 z"
       id="path829"
       inkscape:connector-curvature="0" />
    <path
       style="fill:none;stroke:#ffffff;stroke-width:18.51267433px;stroke-linecap:butt;stroke-linejoin:miter;stroke-opacity:0.5"
       d="m -378.27064,366.25547 c -8621.61606,-13.22333 -8608.39266,0 -8608.39266,0 z"
       id="path821"
       inkscape:connector-curvature="0" />
    <path
       style="fill:none;stroke:#ffffff;stroke-width:18.51268005px;stroke-linecap:butt;stroke-linejoin:miter;stroke-opacity:0.5"
       d="m 9033.7447,366.25547 c -8621.61585,-13.2233 -8608.39289,0 -8608.39289,0 z"
       id="path821-4"
       inkscape:connector-curvature="0" />
  </g>
</svg>
